<svg width="333" height="331" viewBox="0 0 333 331" fill="none" xmlns="http://www.w3.org/2000/svg">
<path d="M53.9106 60.9585L80.0356 278.667L10.2034 208.835C-0.150761 198.48 -2.92872 182.745 3.27161 169.473L53.9106 60.9585Z" fill="#1565C0"/>
<path d="M204.73 11.4863C197.372 4.12775 187.401 0 177.003 0C170.515 0 164.123 1.61104 158.411 4.68508L53.9105 60.9583V238.112C53.9105 247.351 57.5767 256.208 64.1167 262.739L80.0355 278.667H271.619V235.125L332.577 139.333L204.73 11.4863Z" fill="#42A5F5"/>
<path d="M53.9105 60.9585H239.772C249.012 60.9585 257.868 64.6247 264.4 71.1647L332.577 139.333V278.667H271.619L53.9105 60.9585Z" fill="#1565C0"/>
<path d="M271.619 278.667H80.0355L132.286 330.917H271.619V278.667Z" fill="#85CBF8"/>
</svg>
