<svg width="256" height="268" viewBox="0 0 256 268" fill="none" xmlns="http://www.w3.org/2000/svg">
<path d="M127.497 130.186C124.177 130.21 120.894 130.906 117.836 132.236C114.778 133.565 112.004 135.502 109.674 137.935C107.344 140.367 105.503 143.249 104.256 146.414C103.009 149.579 102.38 152.965 102.406 156.38L103.057 241.341C103.083 244.754 103.762 248.129 105.056 251.272C106.35 254.416 108.233 257.266 110.598 259.661C112.963 262.055 115.763 263.948 118.838 265.229C121.914 266.511 125.205 267.156 128.523 267.13C131.842 267.103 135.122 266.405 138.178 265.074C141.234 263.743 144.005 261.806 146.333 259.374C148.661 256.941 150.501 254.061 151.746 250.897C152.992 247.733 153.62 244.348 153.594 240.935L152.943 155.974C152.891 149.084 150.181 142.498 145.409 137.662C140.638 132.826 134.195 130.137 127.497 130.186Z" fill="#0B60B0"/>
<path d="M161.577 69.5388C158.167 69.5793 155.172 70.0148 152.53 70.6885C143.135 73.0837 137.818 78.508 133.147 82.6104C120.208 93.9748 109.966 101.23 89.1843 101.694C79.3096 101.915 69.2469 98.3877 60.3214 93.995C62.0682 104.854 66.2608 115.142 72.564 124.036C78.8672 132.931 87.1062 140.184 96.622 145.218C98.7798 138.578 102.9 132.798 108.407 128.685C113.915 124.572 120.534 122.331 127.339 122.277C134.295 122.23 141.083 124.47 146.716 128.669C152.348 132.868 156.53 138.807 158.652 145.621C170.04 139.76 179.617 130.754 186.311 119.611C193.005 108.468 196.55 95.6283 196.551 82.5298C196.55 81.4943 196.528 80.4589 196.483 79.4244C181.439 71.8694 170.175 69.437 161.577 69.5388Z" fill="#0B60B0"/>
<path d="M127.966 11.9814C110.097 11.9934 92.9377 19.1785 80.1409 32.0075C67.3442 44.8365 59.9202 62.2963 59.4492 80.6706C68.9702 85.9079 80.3761 90.4577 88.9493 90.2662C107.596 89.8497 113.236 85.0748 125.939 73.9172C129.957 70.3889 137.482 62.7352 149.846 59.583C156.028 58.007 163.328 57.5598 171.955 58.9706C178.674 60.0694 186.21 62.2999 194.634 65.9818C191.023 50.5916 182.485 36.8978 170.393 27.1031C158.301 17.3085 143.357 11.9823 127.966 11.9814Z" fill="#0B60B0"/>
<path d="M214.341 0.000376772C211.039 -0.000221569 207.769 0.666392 204.718 1.96215C201.668 3.25791 198.896 5.15744 196.561 7.55223C194.226 9.94701 192.374 12.7902 191.11 15.9193C189.847 19.0484 189.196 22.4022 189.197 25.7891C189.203 30.6461 190.546 35.4025 193.072 39.5108C201.259 52.3851 205.662 67.4148 205.754 82.7982C205.754 98.1433 201.462 113.164 193.391 126.07C185.32 138.975 173.81 149.22 160.234 155.581L160.652 210.012C187.964 202.6 212.125 186.104 229.371 163.094C246.617 140.084 255.98 111.853 256 82.7983C255.892 57.5361 248.721 32.839 235.343 11.6538L235.327 11.6371L235.238 11.5028C232.946 7.96975 229.84 5.07138 226.194 3.06483C222.549 1.05827 218.478 0.00591138 214.341 0.000376772Z" fill="#0B60B0"/>
<path d="M41.6595 0.000396603C44.9614 -0.000200377 48.2311 0.66641 51.2818 1.96217C54.3326 3.25793 57.1045 5.15746 59.4395 7.55225C61.7744 9.94704 63.6265 12.7902 64.8901 15.9193C66.1536 19.0484 66.8038 22.4022 66.8036 25.7891C66.7973 30.6461 65.4539 35.4026 62.928 39.5108C54.7416 52.3852 50.3385 67.4148 50.2463 82.7982C50.2465 98.1433 54.5381 113.164 62.6092 126.07C70.6803 138.975 82.1901 149.22 95.7657 155.581L95.3479 210.012C68.0366 202.6 43.8756 186.104 26.6294 163.094C9.3832 140.084 0.0204541 111.853 0 82.7983C0.107925 57.5361 7.27889 32.8391 20.6574 11.6538L20.6736 11.6372L20.7625 11.5028C23.0542 7.96974 26.1604 5.07139 29.8058 3.06483C33.4512 1.05827 37.5224 0.00593235 41.6595 0.000396603Z" fill="#0B60B0"/>
</svg>
