<svg width="745" height="629" viewBox="0 0 745 629" fill="none" xmlns="http://www.w3.org/2000/svg">
<path d="M93.6019 142.542C163.527 188.136 193.557 217.649 233.003 276.367C233.003 276.367 142.193 304.247 97.9831 217.819C53.7732 131.39 0.00439453 121.035 0.00439453 121.035C134.227 57.3087 233.003 150.11 251.324 253.664C194.963 194.057 160.624 169.126 93.6019 142.542Z" fill="#5AA337"/>
<path d="M577.521 257.647C523.752 335.712 477.551 350.05 477.551 350.05C598.232 422.937 746.793 344.002 744.005 193.921C736.773 299.917 647.221 347.66 582.301 339.296C648.018 330.284 713.735 313.806 731.26 202.684C748.785 91.5614 653.992 13.8214 566.369 16.6094C653.196 31.7444 720.108 122.23 721.701 200.294C721.701 200.294 631.29 179.583 577.521 257.647Z" fill="url(#paint0_linear_883_64)"/>
<path d="M502.785 519.23C501.926 520.305 502.047 523.544 502.95 524.582C503.041 524.687 503.13 524.794 503.218 524.905C504.469 526.476 505.094 528.256 505.094 530.243C505.094 531.943 504.645 533.482 503.747 534.86C502.882 536.207 501.615 537.281 499.948 538.082C498.281 538.852 496.341 539.236 494.129 539.236H482.76C481.655 539.236 480.76 538.341 480.76 537.236V507.813C480.76 506.708 481.655 505.813 482.76 505.813H493.504C495.78 505.813 497.736 506.198 499.371 506.967C501.006 507.736 502.24 508.778 503.074 510.093C503.908 511.375 504.324 512.818 504.324 514.421C504.324 516.345 503.811 517.948 502.785 519.23ZM486.242 517.856C486.242 518.96 487.137 519.856 488.242 519.856H493.023C494.818 519.856 496.213 519.455 497.207 518.653C498.233 517.82 498.746 516.633 498.746 515.095C498.746 513.588 498.233 512.417 497.207 511.584C496.213 510.718 494.818 510.285 493.023 510.285H488.242C487.137 510.285 486.242 511.181 486.242 512.285V517.856ZM493.648 534.764C495.508 534.764 496.966 534.315 498.024 533.417C499.082 532.52 499.611 531.269 499.611 529.666C499.611 528.031 499.05 526.733 497.928 525.771C496.806 524.809 495.315 524.328 493.456 524.328H488.242C487.137 524.328 486.242 525.224 486.242 526.328V532.764C486.242 533.869 487.137 534.764 488.242 534.764H493.648Z" fill="#37894B"/>
<path d="M532.961 510.237C531.857 510.237 530.961 511.133 530.961 512.237V518.048C530.961 519.153 531.857 520.048 532.961 520.048H540.503C541.608 520.048 542.503 520.943 542.503 522.048V522.52C542.503 523.625 541.608 524.52 540.503 524.52H532.961C531.857 524.52 530.961 525.416 530.961 526.52V532.764C530.961 533.869 531.857 534.764 532.961 534.764H541.946C543.051 534.764 543.946 535.659 543.946 536.764V537.236C543.946 538.341 543.051 539.236 541.946 539.236H527.479C526.374 539.236 525.479 538.341 525.479 537.236V507.765C525.479 506.66 526.374 505.765 527.479 505.765H541.946C543.051 505.765 543.946 506.66 543.946 507.765V508.237C543.946 509.342 543.051 510.237 541.946 510.237H532.961Z" fill="#37894B"/>
<path d="M583.644 539.236C582.928 539.236 582.267 538.854 581.911 538.234L575.37 526.869C575.013 526.249 574.352 525.867 573.636 525.867H572.609C571.504 525.867 570.609 526.762 570.609 527.867V537.236C570.609 538.341 569.713 539.236 568.609 539.236H567.126C566.022 539.236 565.126 538.341 565.126 537.236V507.813C565.126 506.708 566.022 505.813 567.126 505.813H576.668C579.233 505.813 581.397 506.262 583.161 507.159C584.956 508.057 586.287 509.259 587.152 510.766C588.05 512.273 588.499 513.956 588.499 515.816C588.499 517.996 587.858 519.984 586.575 521.779C585.771 522.913 584.681 523.816 583.307 524.486C582.097 525.075 581.455 526.557 582.146 527.713L587.221 536.211C588.017 537.544 587.057 539.236 585.504 539.236H583.644ZM570.609 519.491C570.609 520.595 571.504 521.491 572.609 521.491H576.668C578.72 521.491 580.259 520.978 581.285 519.952C582.343 518.926 582.872 517.547 582.872 515.816C582.872 514.085 582.359 512.738 581.333 511.776C580.307 510.782 578.752 510.285 576.668 510.285H572.609C571.504 510.285 570.609 511.181 570.609 512.285V519.491Z" fill="#37894B"/>
<path d="M620.953 539.573C618.709 539.573 616.689 539.188 614.893 538.419C613.098 537.617 611.687 536.495 610.661 535.052C610.005 534.13 609.559 533.109 609.322 531.989C609.094 530.909 610.018 530.003 611.122 530.003H613.159C614.195 530.003 615.014 530.82 615.417 531.775C615.702 532.45 616.121 533.045 616.673 533.562C617.699 534.491 619.125 534.956 620.953 534.956C622.844 534.956 624.319 534.507 625.377 533.61C626.435 532.68 626.964 531.494 626.964 530.051C626.964 528.929 626.628 528.015 625.954 527.31C625.313 526.604 624.496 526.059 623.502 525.675C622.54 525.29 621.193 524.873 619.462 524.424C617.282 523.847 615.502 523.27 614.124 522.693C612.777 522.084 611.623 521.154 610.661 519.904C609.699 518.653 609.218 516.986 609.218 514.902C609.218 512.978 609.699 511.295 610.661 509.853C611.623 508.41 612.97 507.304 614.701 506.534C616.432 505.765 618.436 505.38 620.712 505.38C623.951 505.38 626.596 506.198 628.647 507.833C630.175 509.008 631.203 510.511 631.732 512.341C632.055 513.462 631.112 514.469 629.945 514.469H627.899C626.855 514.469 626.033 513.622 625.513 512.717C625.227 512.218 624.829 511.76 624.319 511.343C623.261 510.478 621.867 510.045 620.135 510.045C618.564 510.045 617.282 510.446 616.288 511.247C615.294 512.049 614.797 513.203 614.797 514.71C614.797 515.736 615.102 516.585 615.711 517.259C616.352 517.9 617.154 518.413 618.115 518.798C619.077 519.182 620.392 519.599 622.059 520.048C624.271 520.657 626.067 521.266 627.445 521.875C628.856 522.485 630.042 523.43 631.004 524.713C631.998 525.963 632.495 527.646 632.495 529.762C632.495 531.462 632.03 533.065 631.1 534.572C630.202 536.078 628.872 537.297 627.109 538.227C625.377 539.124 623.325 539.573 620.953 539.573Z" fill="#37894B"/>
<path d="M656.874 505.813C657.978 505.813 658.874 506.708 658.874 507.813V537.236C658.874 538.341 657.978 539.236 656.874 539.236H655.391C654.287 539.236 653.391 538.341 653.391 537.236V507.813C653.391 506.708 654.287 505.813 655.391 505.813H656.874Z" fill="#37894B"/>
<path d="M705.19 505.813C706.295 505.813 707.19 506.708 707.19 507.813V537.236C707.19 538.341 706.295 539.236 705.19 539.236H703.708C702.603 539.236 701.708 538.341 701.708 537.236V526.617C701.708 525.512 700.812 524.617 699.708 524.617H687.982C686.877 524.617 685.982 525.512 685.982 526.617V537.236C685.982 538.341 685.086 539.236 683.982 539.236H682.499C681.395 539.236 680.499 538.341 680.499 537.236V507.813C680.499 506.708 681.395 505.813 682.499 505.813H683.982C685.086 505.813 685.982 506.708 685.982 507.813V518.144C685.982 519.249 686.877 520.144 687.982 520.144H699.708C700.812 520.144 701.708 519.249 701.708 518.144V507.813C701.708 506.708 702.603 505.813 703.708 505.813H705.19Z" fill="#37894B"/>
<path d="M566.767 11.0334C475.958 11.0334 382.759 92.6321 382.759 196.237C382.759 299.842 465.95 385.822 569.555 385.822C607.833 385.822 648.416 372.514 671.915 353.878C640.451 383.432 608.986 399.364 553.226 399.364C443.022 399.364 353.684 310.026 353.684 199.822C353.684 89.6177 443.022 0.279663 553.226 0.279663C605.92 0.279663 644.832 19.3975 673.508 45.6844C640.451 23.3803 606.994 11.0334 566.767 11.0334Z" fill="#117396"/>
<path d="M546.056 281.016C553.019 272.607 560.221 263.134 567.564 252.473C580.169 234.173 594.787 221.301 609.782 212.318V202.285L546.056 164.846V281.016Z" fill="#117396"/>
<path d="M536.896 291.642V101.917L524.151 111.259V305.01C528.261 300.957 532.518 296.512 536.896 291.642Z" fill="#117396"/>
<path d="M517.38 311.465V221.727L449.671 261.158V327.198C456.105 333.238 462.965 338.822 470.203 343.898C476.582 341.288 494.16 332.845 517.38 311.465Z" fill="#117396"/>
<path d="M524.151 42.9703L589.868 81.6042V178.786L546.853 152.898V72.0453L524.151 92.358V42.9703Z" fill="#117396"/>
<path d="M490.296 132.983L503.041 123.823V216.624L490.296 224.589V132.983Z" fill="#117396"/>
<path d="M520.168 113.866L507.423 123.026V214.632L520.168 206.666V113.866Z" fill="#117396"/>
<path fill-rule="evenodd" clip-rule="evenodd" d="M223.842 329.737C340.142 244.504 273.23 137.364 273.23 137.364C273.23 137.364 308.279 164.846 314.253 232.953C317.287 267.538 288.586 309.825 259.754 352.306C231.807 393.481 203.738 434.837 204.326 469.536C204.326 502.992 210.301 591.014 323.016 604.157C394.145 612.452 453.686 588.55 453.686 525.621L453.829 498.936V428.534C453.829 423.046 458.278 418.598 463.766 418.598C469.254 418.598 473.702 423.046 473.702 428.534V429.954C476.257 426.358 479.759 423.377 484.207 421.011C488.749 418.55 493.907 417.32 499.68 417.32C506.399 417.32 512.455 418.976 517.849 422.288C523.338 425.6 527.644 430.332 530.767 436.483C533.985 442.54 535.593 449.59 535.593 457.634C535.593 465.678 533.985 472.823 530.767 479.069C527.644 485.22 523.338 489.999 517.849 493.406C512.455 496.813 506.399 498.516 499.68 498.516C493.907 498.516 488.797 497.334 484.349 494.968C479.996 492.602 476.447 489.621 473.702 486.025V524.778C473.702 525.172 473.68 525.565 473.68 525.959C473.68 569.897 441.182 607.414 400.283 620.413C351.565 635.898 286.711 629.234 241.367 610.058C150.956 571.822 107.542 414.971 223.842 329.737ZM512.313 445.426C514.301 448.833 515.294 452.903 515.294 457.634C515.294 462.461 514.301 466.625 512.313 470.126C510.421 473.628 507.865 476.325 504.648 478.217C501.525 480.11 498.118 481.056 494.427 481.056C490.831 481.056 487.424 480.157 484.207 478.359C481.084 476.467 478.529 473.77 476.541 470.268C474.649 466.767 473.702 462.65 473.702 457.918C473.702 453.186 474.649 449.07 476.541 445.568C478.529 442.067 481.084 439.417 484.207 437.619C487.424 435.726 490.831 434.78 494.427 434.78C498.118 434.78 501.525 435.679 504.648 437.477C507.865 439.275 510.421 441.925 512.313 445.426Z" fill="#117396"/>
<path d="M684.258 493.649C686.065 495.918 688.806 497.239 691.706 497.239C699.93 497.239 704.288 487.518 698.816 481.379L678.032 458.06L698.689 434.525C704.133 428.323 699.729 418.598 691.476 418.598C688.544 418.598 685.772 419.939 683.951 422.238L660.43 451.956V402.131C660.43 396.643 655.981 392.194 650.493 392.194C645.006 392.194 640.557 396.643 640.557 402.131V487.302C640.557 492.79 645.006 497.239 650.493 497.239C655.981 497.239 660.43 492.79 660.43 487.302V463.738L684.258 493.649Z" fill="#117396"/>
<path fill-rule="evenodd" clip-rule="evenodd" d="M299.104 398.156C309.513 398.156 318.646 400.191 326.5 404.26C334.45 408.33 340.554 414.15 344.812 421.72C349.165 429.197 351.342 437.903 351.342 447.84C351.342 457.776 349.165 466.483 344.812 473.959C340.554 481.34 334.45 487.066 326.5 491.135C318.646 495.204 309.513 497.239 299.104 497.239H278.806C270.887 497.239 264.467 490.819 264.467 482.901V412.495C264.467 404.576 270.887 398.156 278.806 398.156H299.104ZM298.394 480.347C308.804 480.347 316.848 477.508 322.526 471.83C328.204 466.151 331.043 458.155 331.043 447.84C331.043 437.524 328.204 429.481 322.526 423.708C316.848 417.84 308.804 414.907 298.394 414.907H289.12C286.481 414.907 284.341 417.047 284.341 419.686V475.567C284.341 478.207 286.481 480.347 289.12 480.347H298.394Z" fill="#117396"/>
<path fill-rule="evenodd" clip-rule="evenodd" d="M439.323 456.215C439.323 459.054 439.134 461.609 438.756 463.88H383.862C382.464 463.88 381.352 465.079 381.598 466.455C382.397 470.92 384.273 474.51 387.227 477.224C390.728 480.441 395.034 482.05 400.145 482.05C404.979 482.05 408.899 480.69 411.907 477.971C414.987 475.186 418.531 472.539 422.684 472.539C429.987 472.539 435.162 479.769 430.479 485.373C428.688 487.517 426.62 489.485 424.276 491.277C417.841 496.103 409.939 498.516 400.57 498.516C393 498.516 386.186 496.86 380.129 493.548C374.167 490.141 369.483 485.362 366.076 479.211C362.764 473.06 361.108 465.962 361.108 457.918C361.108 449.78 362.764 442.635 366.076 436.483C369.388 430.332 374.025 425.6 379.987 422.288C385.949 418.976 392.81 417.32 400.57 417.32C408.047 417.32 414.718 418.929 420.586 422.146C426.548 425.364 431.137 429.954 434.355 435.916C437.667 441.783 439.323 448.549 439.323 456.215ZM416.306 450.537C417.643 450.537 418.738 449.435 418.553 448.111C417.995 444.122 416.212 440.861 413.204 438.329C409.608 435.206 405.208 433.644 400.003 433.644C395.082 433.644 390.918 435.159 387.511 438.187C384.785 440.601 382.925 443.816 381.93 447.832C381.58 449.244 382.708 450.537 384.162 450.537H416.306Z" fill="#117396"/>
<path fill-rule="evenodd" clip-rule="evenodd" d="M584.955 498.516C577.384 498.516 570.57 496.86 564.514 493.548C558.457 490.141 553.678 485.362 550.177 479.211C546.77 473.06 545.066 465.962 545.066 457.918C545.066 449.874 546.817 442.777 550.319 436.625C553.915 430.474 558.788 425.742 564.94 422.43C571.091 419.023 577.952 417.32 585.523 417.32C593.094 417.32 599.955 419.023 606.106 422.43C612.257 425.742 617.083 430.474 620.585 436.625C624.181 442.777 625.979 449.874 625.979 457.918C625.979 465.962 624.134 473.06 620.443 479.211C616.847 485.362 611.926 490.141 605.68 493.548C599.529 496.86 592.62 498.516 584.955 498.516ZM584.955 481.198C588.551 481.198 591.911 480.347 595.034 478.643C598.251 476.845 600.806 474.195 602.699 470.694C604.592 467.192 605.538 462.934 605.538 457.918C605.538 450.442 603.551 444.717 599.576 440.742C595.696 436.673 590.917 434.638 585.239 434.638C579.561 434.638 574.782 436.673 570.902 440.742C567.116 444.717 565.224 450.442 565.224 457.918C565.224 465.394 567.069 471.167 570.76 475.236C574.545 479.211 579.277 481.198 584.955 481.198Z" fill="#117396"/>
<defs>
<linearGradient id="paint0_linear_883_64" x1="431.748" y1="353.959" x2="688.643" y2="184.687" gradientUnits="userSpaceOnUse">
<stop stop-color="#80B62D"/>
<stop offset="1" stop-color="#4A8D29"/>
</linearGradient>
</defs>
</svg>
