<svg width="360" height="380" viewBox="0 0 360 380" fill="none" xmlns="http://www.w3.org/2000/svg">
<path fill-rule="evenodd" clip-rule="evenodd" d="M102.515 104.365C100.956 105.505 100.525 107.712 99.8979 117.748C96.6809 169.219 73.5079 218.141 36.6489 251.276C13.2399 272.319 7.61394 279.595 2.83794 295C0.999939 300.929 0.512939 304.805 0.512939 313.5C0.512939 332.68 6.45194 346.716 20.4019 360.504C34.1069 374.051 47.6149 379.54 66.9999 379.441C76.8709 379.391 79.6339 378.991 86.4999 376.618C98.2969 372.541 104.573 368.578 113.5 359.571C130.511 342.408 148.299 305.52 154.446 274.658C158.537 254.122 159.397 227.555 156.606 208C151.643 173.233 136.906 139.147 114.769 111.231C108.242 103 106.057 101.776 102.515 104.365Z" fill="#1F717C"/>
<path d="M173.866 237.14C172.585 230.929 172.609 230.735 174.888 228.89C176.171 227.85 177.734 227.001 178.361 227.002C178.987 227.003 183.1 229.716 187.5 233.031C218.604 256.464 253.9 265.709 292.026 260.409C306.785 258.357 313.896 259.079 322.781 263.534C343.707 274.024 351.976 298.501 341.651 319.391C333.641 335.599 318.043 344.037 299 342.465C268.58 339.952 244.376 330.686 221.816 312.917C198.222 294.333 179.585 264.88 173.866 237.14Z" fill="#20A9B9"/>
<path d="M47.1409 64.9299C49.8699 59.0459 56.0719 53.1209 61.4999 51.2129C65.5149 49.8009 76.7199 49.8669 80.7099 51.3259C85.7399 53.1649 92.271 59.2299 94.8969 64.4979C98.1129 70.9509 98.2239 80.8399 95.1519 87.1849C90.3559 97.0929 81.8989 102.432 70.9999 102.432C51.2749 102.432 38.8229 82.8589 47.1409 64.9299Z" fill="#20A9B9"/>
<path d="M263 10.783C271.971 5.51196 277.465 3.23996 285.5 1.47596C298.75 -1.43304 312.422 0.436965 325.5 6.94496C343.063 15.686 354.522 30.765 358.601 50.5C365.138 82.134 343.944 115.072 312.409 122.288C308.609 123.157 301.225 124.852 296 126.055C250.765 136.466 209.935 163.304 181.365 201.407C176.121 208.401 174.749 209.405 171.538 208.599C168.443 207.822 168.046 206.491 166.762 192.575C164.781 171.096 168.596 141.956 176.487 118.297C191.46 73.407 222.885 34.353 263 10.783Z" fill="#1F717C"/>
</svg>
