<svg width="145" height="156" viewBox="0 0 145 156" fill="none" xmlns="http://www.w3.org/2000/svg">
<path d="M73.1413 47.8925C72.2485 47.8988 71.3656 48.0822 70.5432 48.4322C69.7208 48.7822 68.975 49.292 68.3483 49.9324C67.7217 50.5728 67.2265 51.3312 66.8911 52.1644C66.5558 52.9976 66.3867 53.8892 66.3937 54.7882L66.5689 77.1538C66.5759 78.0523 66.7585 78.9407 67.1064 79.7682C67.4544 80.5956 67.9608 81.346 68.5967 81.9764C69.2327 82.6068 69.9857 83.1049 70.8128 83.4422C71.64 83.7796 72.525 83.9496 73.4174 83.9426C74.3098 83.9356 75.1921 83.7517 76.0139 83.4013C76.8357 83.051 77.5809 82.5411 78.207 81.9008C78.833 81.2604 79.3277 80.5022 79.6628 79.6694C79.9978 78.8365 80.1667 77.9454 80.1597 77.0469L79.9845 54.6813C79.9705 52.8675 79.2418 51.1336 77.9586 49.8605C76.6754 48.5875 74.9427 47.8797 73.1413 47.8925Z" fill="#0B60B0"/>
<path d="M82.3065 31.9273C81.3895 31.938 80.5842 32.0526 79.8736 32.23C77.3471 32.8605 75.9171 34.2884 74.661 35.3684C71.1813 38.36 68.4269 40.2699 62.8381 40.3921C60.1825 40.4502 57.4763 39.5217 55.076 38.3654C55.5458 41.224 56.6733 43.9322 58.3684 46.2736C60.0635 48.615 62.2792 50.5246 64.8383 51.8496C65.4186 50.1018 66.5267 48.5802 68.0077 47.4974C69.4888 46.4147 71.2688 45.8248 73.099 45.8104C74.9696 45.7982 76.7953 46.3877 78.3099 47.4931C79.8246 48.5985 80.9492 50.1619 81.5199 51.9557C84.5825 50.4129 87.1581 48.0421 88.9582 45.1087C90.7583 42.1754 91.7118 38.7953 91.712 35.3472C91.7119 35.0746 91.7058 34.802 91.6938 34.5297C87.648 32.5409 84.6187 31.9005 82.3065 31.9273Z" fill="#0B60B0"/>
<path d="M73.2676 16.7756C68.462 16.7787 63.8475 18.6702 60.406 22.0474C56.9646 25.4246 54.9681 30.0208 54.8414 34.8578C57.4019 36.2365 60.4693 37.4342 62.7749 37.3838C67.7896 37.2742 69.3062 36.0172 72.7226 33.08C73.8029 32.1512 75.8266 30.1364 79.1516 29.3066C80.8141 28.8917 82.7776 28.7739 85.0975 29.1453C86.9044 29.4346 88.9311 30.0218 91.1964 30.991C90.2255 26.9396 87.9294 23.3348 84.6775 20.7563C81.4255 18.1779 77.4067 16.7758 73.2676 16.7756Z" fill="#0B60B0"/>
<path d="M96.4961 13.6216C95.6082 13.6214 94.7288 13.7969 93.9084 14.138C93.088 14.4791 92.3425 14.9792 91.7146 15.6096C91.0867 16.24 90.5886 16.9885 90.2488 17.8122C89.909 18.6359 89.7341 19.5188 89.7342 20.4104C89.7359 21.689 90.0971 22.9411 90.7764 24.0226C92.978 27.4117 94.1621 31.3682 94.1869 35.4179C94.1869 39.4574 93.0327 43.4117 90.8622 46.809C88.6916 50.2062 85.5963 52.9031 81.9454 54.5778L82.0578 68.9065C89.4026 66.9554 95.9002 62.6128 100.538 56.5556C105.176 50.4983 107.694 43.0664 107.7 35.4179C107.671 28.7677 105.742 22.2663 102.144 16.6893L102.14 16.6849L102.116 16.6496C101.5 15.7195 100.664 14.9565 99.6839 14.4283C98.7036 13.9001 97.6087 13.623 96.4961 13.6216Z" fill="#0B60B0"/>
<path d="M50.0572 13.6216C50.9452 13.6215 51.8245 13.7969 52.645 14.138C53.4654 14.4791 54.2109 14.9792 54.8388 15.6096C55.4667 16.24 55.9648 16.9885 56.3046 17.8122C56.6444 18.6359 56.8193 19.5188 56.8192 20.4104C56.8175 21.689 56.4562 22.9411 55.777 24.0226C53.5754 27.4117 52.3913 31.3682 52.3665 35.4179C52.3665 39.4574 53.5207 43.4117 55.6912 46.809C57.8618 50.2063 60.9571 52.9031 64.608 54.5778L64.4956 68.9065C57.1508 66.9554 50.6532 62.6129 46.0152 56.5556C41.3772 50.4983 38.8593 43.0664 38.8538 35.4179C38.8828 28.7677 40.8113 22.2663 44.4092 16.6893L44.4135 16.685L44.4374 16.6496C45.0537 15.7195 45.8891 14.9565 46.8694 14.4283C47.8498 13.9001 48.9447 13.6231 50.0572 13.6216Z" fill="#0B60B0"/>
<path d="M84.7188 83.7942C83.1459 83.7955 81.8713 85.0793 81.8705 86.6631V113.757C81.8511 114.162 81.8401 115.567 82.5025 117.076C83.2874 118.865 85.5339 120.876 88.584 121.015C90.1561 121.087 91.489 119.863 91.5616 118.28C91.6333 116.696 90.4157 115.354 88.8425 115.282C87.6066 115.226 87.8587 115.078 87.7182 114.758C87.5777 114.438 87.5643 114.038 87.5643 114.038L87.5708 113.937V86.6631C87.57 85.0778 86.2932 83.7934 84.7188 83.7942ZM106.325 96.1425C99.5176 96.1425 93.9252 101.737 93.9252 108.581C93.9252 115.424 99.5176 121.019 106.325 121.019C113.132 121.019 118.724 115.424 118.724 108.581C118.724 101.737 113.132 96.1425 106.325 96.1425ZM30.6488 96.3099C29.0911 96.3092 27.8282 97.5808 27.829 99.1492V109.193L27.8329 109.153C27.8329 109.153 27.7535 111.82 29.0827 114.583C30.4119 117.345 33.7017 120.333 38.7528 120.333C40.908 120.333 42.7673 119.793 44.2945 118.955C44.3189 121.077 44.3691 123.269 43.4741 124.718C42.7998 125.81 40.7952 127.298 38.461 127.298C34.849 127.298 33.4259 125.085 33.4259 125.085C32.5196 123.813 30.761 123.52 29.4961 124.43C28.2299 125.343 27.9388 127.117 28.846 128.391C28.846 128.391 32.2635 132.973 38.461 132.973C43.085 132.973 46.3417 130.29 47.9439 127.599C49.5462 124.908 49.9302 122.536 49.9302 120.937V110.908C49.9302 109.9 49.9312 110.392 49.9312 109.175V99.1492C49.9322 97.5819 48.6708 96.3108 47.1143 96.3099C45.5566 96.3092 44.2937 97.5808 44.2945 99.1492V109.175C44.2945 109.361 44.0695 111.187 43.2928 112.427C42.5161 113.666 41.5526 114.658 38.7528 114.658C35.5872 114.658 34.8229 113.494 34.1549 112.105C33.4869 110.717 33.4687 109.233 33.4687 109.233V109.211V99.1492C33.4697 97.5808 32.2064 96.3092 30.6488 96.3099ZM56.9496 96.4104C55.392 96.4096 54.1291 97.6813 54.1298 99.2496V109.615L54.1338 109.572C54.1338 109.572 54.053 112.326 55.4586 115.163C56.8642 118.001 60.2781 121.019 65.5592 121.019C70.2748 121.019 73.6162 118.639 75.2797 116.06C76.9433 113.481 77.2622 111.068 77.2622 109.597V99.2496C77.263 97.6828 76.0024 96.4118 74.4463 96.4104C72.8886 96.4096 71.6257 97.6813 71.6265 99.2496V109.597C71.6265 109.79 71.3895 111.671 70.5525 112.968C69.7156 114.266 68.6124 115.344 65.5592 115.344C62.1094 115.344 61.2188 114.078 60.5023 112.631C59.7857 111.185 59.7695 109.655 59.7695 109.655V109.633V99.2496C59.7703 97.6813 58.5073 96.4096 56.9496 96.4104ZM106.325 101.882C110.066 101.882 113.024 104.855 113.024 108.581C113.024 112.306 110.066 115.278 106.325 115.278C102.584 115.278 99.6255 112.306 99.6255 108.581C99.6255 104.855 102.584 101.882 106.325 101.882Z" fill="#0B60B0"/>
<path fill-rule="evenodd" clip-rule="evenodd" d="M50.5281 140H94.4719C98.6296 140 102 143.37 102 147.528C102 151.686 98.6296 155.056 94.4719 155.056H50.5281C46.3705 155.056 43 151.686 43 147.528C43 143.37 46.3705 140 50.5281 140ZM77.7238 145.36C78.3638 145.36 78.8772 145.573 79.2638 146C79.6505 146.42 79.8438 147 79.8438 147.74V150.15C79.8438 150.619 79.4633 151 78.9938 151C78.5244 151 78.1438 150.619 78.1438 150.15V147.97C78.1438 147.597 78.0472 147.307 77.8538 147.1C77.6605 146.893 77.4005 146.79 77.0738 146.79C76.7472 146.79 76.4872 146.893 76.2938 147.1C76.1005 147.307 76.0038 147.597 76.0038 147.97V150.145C76.0038 150.617 75.621 151 75.1488 151C74.6766 151 74.2938 150.617 74.2938 150.145V144.455C74.2938 143.983 74.6766 143.6 75.1488 143.6C75.621 143.6 76.0038 143.983 76.0038 144.455V146.17C76.1772 145.923 76.4138 145.727 76.7138 145.58C77.0138 145.433 77.3505 145.36 77.7238 145.36ZM56.57 144.98C56.57 144.428 56.1223 143.98 55.57 143.98H55.2363C54.8277 143.98 54.4603 144.228 54.3082 144.608L52.61 148.84L50.8931 144.604C50.7401 144.227 50.3735 143.98 49.9663 143.98H49.62C49.0677 143.98 48.62 144.428 48.62 144.98V150.145C48.62 150.617 49.0028 151 49.475 151C49.9472 151 50.33 150.617 50.33 150.145V146.78L51.91 151H53.29L54.86 146.79V150.145C54.86 150.617 55.2428 151 55.715 151C56.1872 151 56.57 150.617 56.57 150.145V144.98ZM63.0297 148.62C63.0497 148.447 63.0597 148.28 63.0597 148.12C63.0597 147.56 62.9397 147.07 62.6997 146.65C62.4664 146.23 62.1397 145.907 61.7197 145.68C61.2997 145.453 60.8197 145.34 60.2797 145.34C59.7264 145.34 59.2364 145.457 58.8097 145.69C58.383 145.923 58.0497 146.257 57.8097 146.69C57.5764 147.123 57.4597 147.63 57.4597 148.21C57.4597 148.79 57.5797 149.297 57.8197 149.73C58.0597 150.163 58.393 150.497 58.8197 150.73C59.2464 150.963 59.733 151.08 60.2797 151.08C60.733 151.08 61.143 150.997 61.5097 150.83C61.8764 150.663 62.1797 150.433 62.4197 150.14C62.6664 149.847 62.8364 149.517 62.9297 149.15H61.1097C60.943 149.51 60.6464 149.69 60.2197 149.69C59.933 149.69 59.6897 149.6 59.4897 149.42C59.2964 149.233 59.1864 148.967 59.1597 148.62H63.0297ZM61.0097 146.97C61.2097 147.143 61.3097 147.377 61.3097 147.67H59.1697C59.2164 147.363 59.3364 147.127 59.5297 146.96C59.7297 146.793 59.973 146.71 60.2597 146.71C60.5597 146.71 60.8097 146.797 61.0097 146.97ZM65.6718 146.35C65.8718 146.043 66.1218 145.803 66.4218 145.63C66.428 145.626 66.4342 145.623 66.4404 145.619L66.4549 145.61L66.464 145.605C66.9446 145.333 67.4218 145.808 67.4218 146.36V147.17H66.9518C66.5251 147.17 66.2051 147.263 65.9918 147.45C65.7785 147.63 65.6718 147.95 65.6718 148.41V150.145C65.6718 150.617 65.289 151 64.8168 151C64.3446 151 63.9618 150.617 63.9618 150.145V146.275C63.9618 145.803 64.3446 145.42 64.8168 145.42C65.289 145.42 65.6718 145.803 65.6718 146.275V146.35ZM68.2491 146.69C68.0158 147.123 67.8991 147.63 67.8991 148.21C67.8991 148.79 68.0158 149.297 68.2491 149.73C68.4891 150.163 68.8191 150.497 69.2391 150.73C69.6658 150.963 70.1525 151.08 70.6991 151.08C71.3925 151.08 71.9758 150.893 72.4491 150.52C72.6048 150.397 72.7427 150.259 72.8631 150.106C73.259 149.603 72.7704 148.98 72.1298 148.98H71.5591C71.4058 149.407 71.1091 149.62 70.6691 149.62C70.3558 149.62 70.1058 149.5 69.9191 149.26C69.7325 149.013 69.6391 148.663 69.6391 148.21C69.6391 147.757 69.7325 147.41 69.9191 147.17C70.1058 146.923 70.3558 146.8 70.6691 146.8C71.1091 146.8 71.4058 147.013 71.5591 147.44H72.1352C72.7741 147.44 73.2652 146.82 72.8741 146.314C72.7512 146.156 72.6095 146.014 72.4491 145.89C71.9825 145.523 71.3991 145.34 70.6991 145.34C70.1525 145.34 69.6658 145.457 69.2391 145.69C68.8191 145.923 68.4891 146.257 68.2491 146.69ZM81.0121 146.69C80.7988 147.123 80.6921 147.627 80.6921 148.2C80.6921 148.773 80.7988 149.28 81.0121 149.72C81.2321 150.153 81.5288 150.49 81.9021 150.73C82.2754 150.963 82.6888 151.08 83.1421 151.08C83.5354 151.08 83.8788 151 84.1721 150.84C84.4721 150.68 84.7054 150.47 84.8721 150.21C84.8721 150.646 85.2258 151 85.6621 151H85.7271C86.1993 151 86.5821 150.617 86.5821 150.145V146.275C86.5821 145.803 86.1993 145.42 85.7271 145.42H85.6621C85.2258 145.42 84.8721 145.774 84.8721 146.21C84.7121 145.95 84.4821 145.74 84.1821 145.58C83.8888 145.42 83.5454 145.34 83.1521 145.34C82.6921 145.34 82.2754 145.457 81.9021 145.69C81.5288 145.923 81.2321 146.257 81.0121 146.69ZM84.5121 147.2C84.7521 147.447 84.8721 147.783 84.8721 148.21C84.8721 148.637 84.7521 148.973 84.5121 149.22C84.2788 149.467 83.9921 149.59 83.6521 149.59C83.3121 149.59 83.0221 149.467 82.7821 149.22C82.5488 148.967 82.4321 148.627 82.4321 148.2C82.4321 147.773 82.5488 147.44 82.7821 147.2C83.0221 146.953 83.3121 146.83 83.6521 146.83C83.9921 146.83 84.2788 146.953 84.5121 147.2ZM91.2192 145.36C91.8726 145.36 92.3925 145.573 92.7792 146C93.1726 146.42 93.3692 147 93.3692 147.74V150.15C93.3692 150.619 92.9887 151 92.5192 151C92.0498 151 91.6692 150.619 91.6692 150.15V147.97C91.6692 147.597 91.5726 147.307 91.3792 147.1C91.1859 146.893 90.9259 146.79 90.5992 146.79C90.2725 146.79 90.0126 146.893 89.8192 147.1C89.6259 147.307 89.5292 147.597 89.5292 147.97V150.145C89.5292 150.617 89.1464 151 88.6742 151C88.202 151 87.8192 150.617 87.8192 150.145V146.275C87.8192 145.803 88.202 145.42 88.6742 145.42H88.7892C89.1979 145.42 89.5292 145.751 89.5292 146.16C89.7026 145.913 89.9359 145.72 90.2292 145.58C90.5226 145.433 90.8526 145.36 91.2192 145.36ZM97.6675 150.16C97.6675 149.823 97.3944 149.55 97.0575 149.55C96.8708 149.55 96.7375 149.513 96.6575 149.44C96.5775 149.367 96.5375 149.247 96.5375 149.08V146.84H96.9475C97.3396 146.84 97.6575 146.522 97.6575 146.13C97.6575 145.738 97.3396 145.42 96.9475 145.42H96.5375V144.915C96.5375 144.443 96.1547 144.06 95.6825 144.06C95.2103 144.06 94.8275 144.443 94.8275 144.915V145.42C94.4519 145.42 94.1475 145.724 94.1475 146.1V146.16C94.1475 146.536 94.4519 146.84 94.8275 146.84V149.06C94.8275 149.747 95.0008 150.243 95.3475 150.55C95.6942 150.85 96.1775 151 96.7975 151H96.9425C97.3429 151 97.6675 150.675 97.6675 150.275V150.16Z" fill="#0B60B0"/>
</svg>
