<svg width="361" height="250" viewBox="0 0 361 250" fill="none" xmlns="http://www.w3.org/2000/svg">
<path d="M2.28133e-06 50C1.08839e-06 22.3858 22.3858 4.18467e-06 50 2.96332e-06L117 0V50L2.28133e-06 50Z" fill="white"/>
<path d="M2.28133e-06 50H50V150H0L2.28133e-06 50Z" fill="white"/>
<path d="M117 0C144.614 0 167 22.3858 167 50V225C167 238.807 155.807 250 142 250C128.193 250 117 238.807 117 225V0Z" fill="white"/>
<path d="M50 200C22.3858 200 1.19294e-06 177.614 0 150H90V200H50Z" fill="white"/>
<path d="M361 200C361 227.614 338.614 250 311 250L244 250L244 200L361 200Z" fill="white"/>
<path d="M361 200H311L311 100H361L361 200Z" fill="white"/>
<path d="M244 250C216.386 250 194 227.614 194 200L194 25C194 11.1929 205.193 1.20706e-06 219 0C232.807 -1.20706e-06 244 11.1929 244 25L244 250Z" fill="white"/>
<path d="M311 50C338.614 50 361 72.3858 361 100L271 100V50L311 50Z" fill="white"/>
</svg>
