<?xml version="1.0" encoding="utf-8"?>
<!-- Generator: Adobe Illustrator 19.0.0, SVG Export Plug-In . SVG Version: 6.00 Build 0)  -->
<svg version="1.1" id="Layer_1" xmlns="http://www.w3.org/2000/svg" xmlns:xlink="http://www.w3.org/1999/xlink" x="0px" y="0px"
	 viewBox="0 0 652.6 411.1" style="enable-background:new 0 0 652.6 411.1;" xml:space="preserve">
<style type="text/css">
	.st0{fill:#0071BC;}
	.st1{fill:#666666;}
	.st2{font-family:'JosefinSans-Regular';}
	.st3{font-size:46.2685px;}
	.st4{font-family:'JosefinSans-Bold';}
	.st5{fill:#C1272D;}
</style>
<g id="XMLID_44_">
	<rect id="XMLID_31_" x="24.5" y="230.9" class="st0" width="561.4" height="3.4"/>
	<text id="XMLID_30_" transform="matrix(1 0 0 1 17.7194 327.3983)"><tspan x="0" y="0" class="st1 st2 st3">Sorry,</tspan><tspan x="0" y="61" class="st1 st4 st3">AeonBit </tspan><tspan x="188" y="61" class="st1 st2 st3">is under construction</tspan></text>
	<g id="XMLID_15_">
		<path id="XMLID_27_" class="st5" d="M166.4,87.7c0,23.5-6.3,42-18.8,55.5c-12.6,13.5-29.8,20.2-51.7,20.2
			c-21.9,0-39.2-6.8-51.7-20.5c-12.5-13.6-18.8-32-18.8-55.2c0-23.4,6.3-41.8,18.8-55.4S74,11.9,95.9,11.9
			c21.9,0,39.1,6.8,51.7,20.3C160.2,45.7,166.4,64.2,166.4,87.7z M128.8,87.6c0-8.7-0.9-16-2.7-22.1c-1.8-6.1-4.2-11.1-7.2-15
			c-3.1-4-6.7-6.8-10.6-8.5c-3.9-1.7-8-2.6-12.3-2.6c-4.5,0-8.6,0.8-12.2,2.4c-3.6,1.6-7.2,4.4-10.5,8.5c-3,3.8-5.4,8.8-7.3,15
			S63.2,79,63.2,87.7c0,8.9,0.9,16.3,2.6,22.2c1.8,5.9,4.2,10.8,7.2,14.8c3.1,4,6.7,6.9,10.6,8.6c4,1.7,8.1,2.6,12.3,2.6
			c4.3,0,8.5-0.9,12.5-2.8c4-1.9,7.5-4.7,10.4-8.6c3.1-4.2,5.5-9.2,7.2-14.8C127.9,104.1,128.8,96.7,128.8,87.6z"/>
		<path id="XMLID_24_" class="st5" d="M291.4,105.6c0,18-4.9,32.2-14.8,42.6c-9.9,10.4-23.8,15.6-41.8,15.6
			c-17.9,0-31.8-5.2-41.7-15.6c-9.9-10.4-14.9-24.6-14.9-42.6c0-18.2,5-32.5,14.9-42.8c9.9-10.3,23.8-15.5,41.7-15.5
			c18,0,31.9,5.2,41.8,15.6C286.4,73.2,291.4,87.5,291.4,105.6z M256.3,105.8c0-6.5-0.5-11.9-1.6-16.3c-1.1-4.3-2.6-7.8-4.4-10.4
			c-2-2.7-4.3-4.6-6.8-5.7c-2.5-1.1-5.4-1.6-8.7-1.6c-3.1,0-5.8,0.5-8.3,1.4c-2.5,0.9-4.8,2.8-6.8,5.4c-2,2.5-3.5,6-4.7,10.4
			c-1.2,4.4-1.8,10-1.8,16.7c0,6.7,0.6,12.1,1.7,16.3c1.1,4.1,2.5,7.4,4.3,9.9c1.8,2.5,4.1,4.4,6.8,5.6c2.7,1.2,5.8,1.8,9.1,1.8
			c2.7,0,5.5-0.6,8.3-1.8c2.8-1.2,5.1-2.9,6.8-5.3c2-2.8,3.5-6.2,4.6-10.1C255.8,118.2,256.3,112.7,256.3,105.8z"/>
		<path id="XMLID_21_" class="st5" d="M417,104c0,17.5-4.4,31.6-13.3,42.4c-8.9,10.7-19.8,16.1-32.9,16.1c-5.5,0-10.2-0.6-14.3-1.9
			c-4-1.2-8.3-3.2-12.9-5.8v45.7h-34.2V50.7h34.2v11.4c5-4.3,10.1-7.8,15.3-10.4c5.2-2.7,11.2-4,18.1-4c12.7,0,22.5,5,29.5,15.1
			C413.6,72.9,417,86.6,417,104z M382.1,104.7c0-10.7-1.6-18.4-4.9-23.2c-3.3-4.8-8.4-7.2-15.4-7.2c-3.1,0-6.1,0.5-9.1,1.5
			c-3,1-6,2.4-8.9,4.4v55.2c1.8,0.8,3.8,1.3,6,1.7c2.2,0.3,4.8,0.5,7.8,0.5c8.3,0,14.5-2.7,18.6-8.2
			C380.1,123.8,382.1,115.6,382.1,104.7z"/>
		<path id="XMLID_19_" class="st5" d="M468.8,163.4c-8.1,0-15.7-0.9-22.9-2.6c-7.2-1.8-13.1-3.8-17.8-6.2v-28.9h2.8
			c1.6,1.2,3.5,2.6,5.6,4.1c2.1,1.5,5,3.1,8.7,4.7c3.2,1.5,6.8,2.8,10.8,3.9c4,1.1,8.3,1.6,13,1.6c4.8,0,9.1-0.7,12.7-2.2
			c3.7-1.5,5.5-3.9,5.5-7.1c0-2.5-0.8-4.5-2.5-5.8c-1.7-1.3-5-2.5-9.9-3.7c-2.6-0.6-5.9-1.4-9.9-2.1c-4-0.7-7.5-1.6-10.5-2.6
			c-8.6-2.7-15.1-6.6-19.4-11.9c-4.3-5.2-6.5-12.1-6.5-20.7c0-4.9,1.1-9.5,3.4-13.8c2.2-4.3,5.5-8.2,9.9-11.6
			c4.4-3.3,9.7-6,16.2-7.9c6.4-2,13.7-2.9,21.7-2.9c7.7,0,14.7,0.8,21.2,2.3c6.4,1.5,11.9,3.4,16.3,5.5v27.7h-2.7
			c-1.2-0.9-3-2.1-5.6-3.7c-2.5-1.5-5-2.8-7.4-4c-2.9-1.3-6.1-2.4-9.6-3.2c-3.5-0.8-7.2-1.3-10.9-1.3c-4.9,0-9.1,0.8-12.5,2.5
			c-3.4,1.7-5.1,3.9-5.1,6.7c0,2.5,0.8,4.4,2.5,5.9c1.7,1.4,5.4,2.8,11,4.2c2.9,0.7,6.3,1.4,10.1,2.1c3.8,0.7,7.5,1.6,11,2.8
			c7.9,2.5,13.9,6.3,17.9,11.2c4.1,4.9,6.1,11.4,6.1,19.6c0,5.1-1.2,10-3.6,14.7c-2.4,4.7-5.8,8.6-10.3,11.8
			c-4.7,3.5-10.2,6.1-16.6,8C485.2,162.4,477.6,163.4,468.8,163.4z"/>
		<path id="XMLID_16_" class="st5" d="M578.9,14.9l-4,103.5h-30.9l-4-103.5H578.9z M578.8,160.4h-38.5v-25.8h38.5V160.4z"/>
	</g>
</g>
</svg>
